<?xml version="1.0" encoding="utf-8"?>
<!-- Generator: Adobe Illustrator 25.3.1, SVG Export Plug-In . SVG Version: 6.00 Build 0)  -->
<svg version="1.1" id="图层_1" xmlns="http://www.w3.org/2000/svg" xmlns:xlink="http://www.w3.org/1999/xlink" x="0px" y="0px"
	 viewBox="0 0 200 200" style="enable-background:new 0 0 200 200;" xml:space="preserve">
<style type="text/css">
	.st0{opacity:0.8;}
	.st1{font-family:'FZLTTHK--GBK1-0';}
	.st2{font-size:52.7428px;}
</style>
<g>
	<path d="M188.7,76.8H177c-3.8-27.6-20-41.6-33.9-48.7c-16.7-8.5-29.3-8.6-30-8.6c-4.3,0-8.8,2.3-8.8,5.6c0,4.3,3,7.5,7.6,7.8
		c0,0,0.1,0,0.1,0c9.4,0.4,18.6,4.7,27,8.9c14,7.1,22.5,18.9,25.3,35h-14c-1.2,0-2.1,1-2.1,2.2c0,0.4,0.1,0.7,0.3,1l19.2,27.2
		c0.6,1,1.9,1.4,2.9,0.8c0.4-0.2,0.6-0.5,0.8-0.8L190.5,80c0.6-1,0.2-2.3-0.8-2.9C189.4,76.9,189.1,76.8,188.7,76.8L188.7,76.8z"/>
	<path d="M12.1,119.7h11.7c3.8,27.6,20,41.6,33.9,48.7c16.7,8.5,29.3,8.6,30,8.6c4.3,0,8.8-2.3,8.8-5.6c0-4.3-3-7.5-7.6-7.8
		c0,0-0.1,0-0.1,0c-9.4-0.4-18.6-4.7-27-8.9c-14-7.1-22.5-18.9-25.3-35h14c1.2,0,2.1-1,2.1-2.2c0-0.4-0.1-0.7-0.3-1L33.1,89.4
		c-0.6-1-1.9-1.4-2.9-0.8c-0.4,0.2-0.6,0.5-0.8,0.8l-19.2,27.2c-0.6,1-0.2,2.3,0.8,2.9C11.4,119.6,11.7,119.7,12.1,119.7L12.1,119.7
		z"/>
	<text transform="matrix(1.0032 0 0 1 96.103 159.9291)" class="st0 st1 st2">3D</text>
	<text transform="matrix(1.0032 0 0 1 21.6826 74.5014)" class="st1 st2">2D</text>
</g>
</svg>
