<?xml version="1.0" encoding="utf-8"?>
<!-- Generator: Adobe Illustrator 25.3.1, SVG Export Plug-In . SVG Version: 6.00 Build 0)  -->
<svg version="1.1" id="图层_1" xmlns="http://www.w3.org/2000/svg" xmlns:xlink="http://www.w3.org/1999/xlink" x="0px" y="0px"
	 viewBox="0 0 200 200" style="enable-background:new 0 0 200 200;" xml:space="preserve">
<style type="text/css">
	.st0{fill:#202425;}
</style>
<g id="u5TbLB.tif">
	
		<image style="overflow:visible;" width="1008" height="192" id="Layer_0" xlink:href="E5BAC5E1B57D6030.png"  transform="matrix(0.75 0 0 0.75 -294.7254 -204.11)">
	</image>
</g>
<path class="st0" d="M129.4,22L100,51.4l33.9,33.9c0.7,0.7,1.4,1.5,2,2.3l28.7-30.1l0.1-0.1c2.3-2.3,2.3-6.1,0-8.5L137.8,22
	C135.5,19.7,131.7,19.7,129.4,22L129.4,22z M90.6,42L120,12.7c7.5-7.5,19.7-7.5,27.3,0c0,0,0,0,0,0l26.8,26.8
	c7.5,7.5,7.5,19.7,0.1,27.2l-34.5,36.2c-0.7,4.3-2.7,8.3-5.8,11.4l-19.6,19.6c-3.1,3.1-7.1,5.1-11.4,5.8l-36.2,34.5
	c-7.5,7.5-19.7,7.4-27.2-0.1l-26.8-26.8c-7.5-7.5-7.5-19.7,0-27.3c0,0,0,0,0,0L42,90.6L19.6,68.2c-8-8-8-21,0-29l19.6-19.6
	c8-8,21-8,29,0L90.6,42L90.6,42z M51.4,100L22,129.4c-2.3,2.3-2.3,6.1,0,8.5l26.8,26.8c2.3,2.3,6.1,2.3,8.5,0l0.1-0.1l30.1-28.7
	c-0.8-0.6-1.6-1.3-2.3-2L51.4,100L51.4,100z M48.6,29L29,48.6c-2.8,2.8-2.8,7.4,0,10.2l65.7,65.7c2.8,2.8,7.4,2.8,10.2,0l19.6-19.6
	c2.8-2.8,2.8-7.4,0-10.2L58.8,29C56,26.2,51.4,26.2,48.6,29z M159.8,100c3.7,0,6.6,3,6.6,6.6c0,33-26.8,59.8-59.8,59.8l0,0
	c-3.7,0-6.6-3-6.6-6.6c0-3.7,3-6.6,6.6-6.6c0,0,0,0,0,0c25.7,0,46.5-20.8,46.5-46.5C153.1,103,156.1,100,159.8,100L159.8,100
	L159.8,100z M193,106.6c0-3.7-3-6.6-6.6-6.6c-3.7,0-6.6,3-6.6,6.6c0,0,0,0,0,0c0,40.4-32.7,73.1-73.1,73.1l0,0c-3.7,0-6.6,3-6.6,6.6
	c0,3.7,3,6.6,6.6,6.6c0,0,0,0,0,0C154.3,193,193,154.3,193,106.6z"/>
</svg>
