<?xml version="1.0" encoding="utf-8"?>
<!-- Generator: Adobe Illustrator 25.3.1, SVG Export Plug-In . SVG Version: 6.00 Build 0)  -->
<svg version="1.1" id="图层_1" xmlns="http://www.w3.org/2000/svg" xmlns:xlink="http://www.w3.org/1999/xlink" x="0px" y="0px"
	 viewBox="0 0 200 200" style="enable-background:new 0 0 200 200;" xml:space="preserve">
<style type="text/css">
	.st0{opacity:0.1;fill:#2D8DFE;enable-background:new    ;}
	.st1{fill:#2D8DFE;}
</style>
<path class="st0" d="M157.5,80c-11.2,21.3-32.5,36.2-57.5,36.2s-46.2-15-57.5-36.2c-6.2,10-8.8,21.3-8.8,32.5
	c0,37.5,30,71.2,66.2,71.2s66.2-33.8,66.2-71.2C166.2,101.2,163.8,90,157.5,80z"/>
<path class="st1" d="M100,190.7c-39.8,0-72.7-37-72.7-78.1c0-27.4,20.6-53.5,37-71.3C74.9,28.7,79.4,23.5,89,16.6
	c2.2-2.2,4.5-3.6,6-4.7c1.2-1,2.7-1.6,4.3-1.8c0.5,0,0.9,0,1.4,0c1.6,0.1,3.1,0.8,4.3,1.8c1.5,1.2,3.7,2.5,6,4.7
	c9.6,8.2,17.8,15.1,24.7,23.3c17.8,17.8,37,45.2,37,72.7C172.7,153.7,139.8,190.7,100,190.7z M100,24.8c-1.4,0-1.4,1.4-2.7,2.7
	C89,34.4,80.8,41.3,74,49.5C58.9,66,41.1,89.3,41.1,112.6c0,35.6,27.4,64.4,58.9,64.4s58.9-30.2,58.9-64.4
	c0-21.9-17.8-46.6-32.9-63.1c-6.9-8.2-15.1-15.1-23.3-21.9C101.4,26.2,101.4,24.8,100,24.8z"/>
</svg>
