<?xml version="1.0" standalone="no"?><!DOCTYPE svg PUBLIC "-//W3C//DTD SVG 1.1//EN" "http://www.w3.org/Graphics/SVG/1.1/DTD/svg11.dtd"><svg t="1648527269961" class="icon" viewBox="0 0 1024 1024" version="1.1" xmlns="http://www.w3.org/2000/svg" p-id="8640" xmlns:xlink="http://www.w3.org/1999/xlink" width="200" height="200"><defs><style type="text/css"></style></defs><path d="M930.909091 896H93.090909c-18.618182 0-34.909091-16.290909-34.909091-34.909091V162.909091c0-18.618182 16.290909-34.909091 34.909091-34.909091h837.818182c18.618182 0 34.909091 16.290909 34.909091 34.909091v698.181818c0 18.618182-16.290909 34.909091-34.909091 34.909091z m-802.909091-69.818182h770.327273v-628.363636H128v628.363636z" fill="#BAC0CA" p-id="8641"></path><path d="M232.727273 640c-4.654545 0-9.309091 0-13.963637-2.327273-16.290909-6.981818-25.6-27.927273-18.618181-44.218182l116.363636-279.272727c4.654545-11.636364 16.290909-20.945455 30.254545-20.945454 13.963636 0 25.6 4.654545 32.581819 16.290909l83.781818 146.618182H814.545455c18.618182 0 34.909091 16.290909 34.90909 34.90909s-16.290909 34.909091-34.90909 34.909091H442.181818c-11.636364 0-23.272727-6.981818-30.254545-16.290909l-58.181818-102.4-90.763637 216.436364c-4.654545 6.981818-16.290909 16.290909-30.254545 16.290909zM814.545455 663.272727H488.727273c-18.618182 0-34.909091-16.290909-34.909091-34.909091s16.290909-34.909091 34.909091-34.909091h325.818182c18.618182 0 34.909091 16.290909 34.90909 34.909091s-16.290909 34.909091-34.90909 34.909091z" fill="#BAC0CA" p-id="8642"></path></svg>