<?xml version="1.0" encoding="utf-8"?>
<!-- Generator: Adobe Illustrator 25.3.1, SVG Export Plug-In . SVG Version: 6.00 Build 0)  -->
<svg version="1.1" id="图层_1" xmlns="http://www.w3.org/2000/svg" xmlns:xlink="http://www.w3.org/1999/xlink" x="0px" y="0px"
	 viewBox="0 0 200 200" style="enable-background:new 0 0 200 200;" xml:space="preserve">
<path d="M100,16.2c46.3,0.1,83.8,37.5,83.8,83.8c-0.1,46.3-37.5,83.8-83.8,83.8c-46.3-0.1-83.8-37.5-83.8-83.8
	C16.2,53.7,53.7,16.2,100,16.2z M100,5C47.5,5,5,47.5,5,100s42.5,95,95,95s95-42.5,95-95S152.5,5,100,5z M92,144.8c0,4.4,3.6,8,8,8
	s8-3.6,8-8c0-4.4-3.6-8-8-8S92,140.4,92,144.8z M98.8,126.9c-3.1,0-5.6-2.5-5.6-5.6c0-22,19.5-31.2,19.6-31.3c4.8-3.8,7.6-8,6.9-14
	c-0.5-4.3-5.3-9.7-11.9-11.1c-6.9-1.6-15.5,0.7-19.8,4.5c-5.6,5-5.9,12.5-5.9,12.6c-0.1,3-2.5,5.5-5.6,5.5h-0.1
	c-3.1,0-5.5-2.5-5.5-5.6c0-0.5,0.2-12.4,9.5-20.7c7-6.2,18.1-9.9,30.8-7c22.1,7.4,20.5,23.3,18.7,29.1c-1.6,5.6-4.5,12.3-12.8,16.9
	l0,0.1c-0.5,0.2-12.8,6.3-12.8,21C104.4,124.4,101.9,126.9,98.8,126.9C98.8,126.9,98.8,126.9,98.8,126.9L98.8,126.9z"/>
</svg>
