<?xml version="1.0" encoding="utf-8"?>
<!-- Generator: Adobe Illustrator 25.3.1, SVG Export Plug-In . SVG Version: 6.00 Build 0)  -->
<svg version="1.1" id="图层_1" xmlns="http://www.w3.org/2000/svg" xmlns:xlink="http://www.w3.org/1999/xlink" x="0px" y="0px"
	 viewBox="0 0 200 200" style="enable-background:new 0 0 200 200;" xml:space="preserve">
<defs>
	<linearGradient id="gradient-vertical" x1="0" x2="0" y1="0" y2="1">
    <stop offset="0%" stop-color="rgba(14, 197, 129, 0.9)" />
    <stop offset="50%" stop-color="rgba(0, 126, 255, 0.9)" />
    <stop offset="100%" stop-color="rgba(0, 216, 255, 0.9)" />
	</linearGradient>
<style type="text/css">
	.st0{fill: url(#gradient-vertical);}
</style>
</defs>
<g>
	<path class="st0" d="M178.7,188H21.3c-8,0-14.3-6.3-14.3-14.2V26.2C7,18.3,13.3,12,21.3,12h54.1c2.3,0,4.7,1,6.3,3l20.6,24.8h76.4
		c8,0,14.3,6.3,14.3,14.2v120.1C193,181.7,186.7,188,178.7,188z M21.3,21.9c-2.3,0-4.3,2-4.3,4.3v147.5c0,2.3,2,4.3,4.3,4.3h157.4
		c2.3,0,4.3-2,4.3-4.3V54c0-2.3-2-4.3-4.3-4.3h-77.1c-2.3,0-4.7-1-6.3-3L74.8,21.9C74.8,21.9,21.3,21.9,21.3,21.9z"/>
	<path class="st0" d="M100,150.9c-1.3,0-2.7-0.3-3.7-1.3l-27.9-27.5c-2-2-2-5,0-6.9c2-2,5-2,7,0l24.2,24.2l24.2-24.2c2-2,5-2,7,0
		c2,2,2,5,0,6.9l-27.6,27.5C102.7,150.6,101.3,150.9,100,150.9z"/>
	<path class="st0" d="M100,150.9c-2.7,0-5-2.3-5-5V81.5c0-2.6,2.3-5,5-5c2.7,0,5,2.3,5,5V146C105,149,102.7,150.9,100,150.9z"/>
</g>
</svg>
