<?xml version="1.0" standalone="no"?>
<!DOCTYPE svg PUBLIC "-//W3C//DTD SVG 1.1//EN" "http://www.w3.org/Graphics/SVG/1.1/DTD/svg11.dtd"><svg t="1693366087869"
  class="icon" viewBox="0 0 1024 1024" version="1.1" xmlns="http://www.w3.org/2000/svg" p-id="5755"
  xmlns:xlink="http://www.w3.org/1999/xlink" width="200" height="200">
  <path
    d="M452.992 148.992a30.592 30.592 0 0 1 20.992-7.978667c8.021333 0 14.976 2.645333 20.992 7.978667l331.008 340.992c5.973333 5.973333 8.96 13.354667 8.96 22.016 0 8.704-2.986667 16.042667-8.96 22.016l-331.008 340.992a30.592 30.592 0 0 1-20.992 8.021333 28.757333 28.757333 0 0 1-20.992-9.002666 28.757333 28.757333 0 0 1-8.96-20.992c0-8.021333 2.986667-15.018667 8.96-20.992L765.013333 512l-312.021333-320a28.757333 28.757333 0 0 1-8.96-20.992c0-8.021333 2.986667-15.36 8.96-22.016z m-256 0a30.592 30.592 0 0 1 20.992-7.978667c8.021333 0 14.976 2.645333 20.992 7.978667l331.008 340.992c5.973333 5.973333 8.96 13.354667 8.96 22.016 0 8.704-2.986667 16.042667-8.96 22.016l-331.008 340.992a30.592 30.592 0 0 1-20.992 8.021333 28.757333 28.757333 0 0 1-20.992-9.002666 28.757333 28.757333 0 0 1-8.96-20.992c0-8.021333 2.986667-15.018667 8.96-20.992L509.013333 512 196.992 192a28.757333 28.757333 0 0 1-8.96-20.992c0-8.021333 2.986667-15.36 8.96-22.016z"
    fill="#FFFFFF" p-id="5756"></path>
</svg>
