<?xml version="1.0" standalone="no"?>
<!DOCTYPE svg PUBLIC "-//W3C//DTD SVG 1.1//EN" "http://www.w3.org/Graphics/SVG/1.1/DTD/svg11.dtd"><svg t="1693366055682"
  class="icon" viewBox="0 0 1024 1024" version="1.1" xmlns="http://www.w3.org/2000/svg" p-id="4662"
  xmlns:xlink="http://www.w3.org/1999/xlink" width="200" height="200">
  <path fill="#FFFFFF"
    d="M512.853333 955.733333H341.333333a17.083733 17.083733 0 0 1-15.837866-23.432533L494.455467 512l-168.96-420.3008A17.066667 17.066667 0 0 1 341.333333 68.266667h171.52a17.066667 17.066667 0 0 1 15.854934 10.752l169.813333 426.666666a16.964267 16.964267 0 0 1 0 12.612267l-169.813333 426.666667a17.066667 17.066667 0 0 1-15.854934 10.769066z m-146.261333-34.133333h134.690133l163.0208-409.6-163.0208-409.6H366.592l162.0992 403.234133a16.9472 16.9472 0 0 1 0 12.731734L366.592 921.6z"
    p-id="4663"></path>
</svg>
