<?xml version="1.0" standalone="no"?>
<!DOCTYPE svg PUBLIC "-//W3C//DTD SVG 1.1//EN" "http://www.w3.org/Graphics/SVG/1.1/DTD/svg11.dtd"><svg t="1693366205488"
  class="icon" viewBox="0 0 1024 1024" version="1.1" xmlns="http://www.w3.org/2000/svg" p-id="14376"
  xmlns:xlink="http://www.w3.org/1999/xlink" width="200" height="200">
  <path
    d="M775.585185 445.62963L383.051852 51.2c-17.066667-18.962963-39.822222-28.444444-64.474074-28.444444-26.548148 0-51.2 9.481481-68.266667 26.548148-18.962963 17.066667-28.444444 39.822222-28.444444 64.474074 0 26.548148 9.481481 51.2 28.444444 70.162963L576.474074 512 248.414815 838.162963c-18.962963 17.066667-28.444444 39.822222-28.444445 64.474074 0 26.548148 9.481481 51.2 28.444445 70.162963s41.718519 28.444444 66.37037 28.444444c24.651852 0 49.303704-9.481481 66.370371-28.444444l392.533333-392.533333c18.962963-17.066667 28.444444-39.822222 28.444444-64.474074 1.896296-26.548148-7.585185-51.2-26.548148-70.162963z"
    fill="#FFFFFF" p-id="14377"></path>
</svg>
