<svg xmlns="http://www.w3.org/2000/svg" width="20" height="20" viewBox="0 0 24 24" fill="none">
  <path
    d="M2.25 12.375C2.25 10.1152 3.78766 8.21444 5.87379 7.66206C6.94571 5.35201 9.28577 3.75 12 3.75C14.7142 3.75 17.0543 5.35201 18.1262 7.66206C20.2123 8.21444 21.75 10.1152 21.75 12.375H20.25C20.25 10.8126 19.187 9.49463 17.7423 9.11209L17.0618 8.93192L16.7656 8.29344C15.9303 6.49334 14.1088 5.25 12 5.25C9.89122 5.25 8.06973 6.49333 7.23444 8.29344L6.93816 8.93192L6.25774 9.11209C4.81304 9.49463 3.75 10.8126 3.75 12.375C3.75 14.1509 5.12265 15.6077 6.86378 15.7401L6.99376 15.75L6.75 17.25V17.2358C4.23283 17.0443 2.25 14.9412 2.25 12.375Z"
    fill="currentColor"></path>
  <path
    d="M13.5364 19C13.5364 19.4142 13.2006 19.75 12.7864 19.75H11.2864C9.49145 19.75 8.03638 18.2949 8.03638 16.5C8.03638 14.7051 9.49145 13.25 11.2864 13.25H14.2864C16.0813 13.25 17.5364 14.7051 17.5364 16.5C17.5364 16.9142 17.2006 17.25 16.7864 17.25C16.3722 17.25 16.0364 16.9142 16.0364 16.5C16.0364 15.5335 15.2529 14.75 14.2864 14.75H11.2864C10.3199 14.75 9.53638 15.5335 9.53638 16.5C9.53638 17.4665 10.3199 18.25 11.2864 18.25H12.7864C13.2006 18.25 13.5364 18.5858 13.5364 19Z"
    fill="currentColor"></path>
  <path
    d="M18.2434 13.25C17.8292 13.25 17.4934 13.5858 17.4934 14C17.4934 14.4142 17.8292 14.75 18.2434 14.75H19.7434C20.7099 14.75 21.4934 15.5335 21.4934 16.5C21.4934 17.4665 20.7099 18.25 19.7434 18.25H16.7434C15.7769 18.25 14.9934 17.4665 14.9934 16.5C14.9934 16.0858 14.6576 15.75 14.2434 15.75C13.8292 15.75 13.4934 16.0858 13.4934 16.5C13.4934 18.2949 14.9485 19.75 16.7434 19.75H19.7434C21.5383 19.75 22.9934 18.2949 22.9934 16.5C22.9934 14.7051 21.5383 13.25 19.7434 13.25H18.2434Z"
    fill="currentColor"></path>
</svg>
