<svg xmlns="http://www.w3.org/2000/svg" width="20" height="20" viewBox="0 0 24 24" fill="none">
  <path
    d="M12.0023 4C7.03124 4 3.00233 7.27305 3.00233 11.3125C3.00233 12.9859 3.70194 14.5187 4.8621 15.7527C4.33827 17.1379 3.24843 18.3121 3.23085 18.3262C2.99882 18.5723 2.93554 18.9309 3.06913 19.2402C3.20272 19.5496 3.50858 19.75 3.84608 19.75C6.00819 19.75 7.71327 18.8465 8.73632 18.1223C9.75233 18.4422 10.8492 18.625 12.0023 18.625C16.9734 18.625 21.0023 15.352 21.0023 11.3125C21.0023 7.27305 16.9734 4 12.0023 4ZM12.0023 16.9375C11.0637 16.9375 10.1355 16.7934 9.24608 16.5121L8.44804 16.259L7.76249 16.7441C7.25976 17.0992 6.57069 17.4965 5.74101 17.7637C5.99765 17.3383 6.24726 16.8602 6.44061 16.3504L6.81327 15.3625L6.08905 14.5961C5.45272 13.9176 4.68983 12.7961 4.68983 11.3125C4.68983 8.21172 7.96991 5.6875 12.0023 5.6875C16.0348 5.6875 19.3148 8.21172 19.3148 11.3125C19.3148 14.4133 16.0348 16.9375 12.0023 16.9375Z"
    fill="currentColor"></path>
</svg>
