<svg xmlns="http://www.w3.org/2000/svg" width="20" height="20" viewBox="0 0 20 20" fill="none">
  <path fill-rule="evenodd" clip-rule="evenodd"
    d="M10.5185 4.34546C11.1666 3.69735 12.0456 3.33325 12.9621 3.33325C13.8787 3.33325 14.7577 3.69735 15.4058 4.34546C16.0539 4.99356 16.418 5.87258 16.418 6.78914C16.418 7.7057 16.0539 8.58472 15.4058 9.23282L15.4058 9.23289L13.4037 11.2343L13.4037 11.2343C12.7556 11.8821 11.8767 12.2461 10.9604 12.2461C10.0441 12.2461 9.16522 11.8821 8.51713 11.2343C8.27301 10.9903 8.27292 10.5946 8.51695 10.3504C8.76098 10.1063 9.15671 10.1062 9.40083 10.3503C9.81452 10.7638 10.3755 10.9961 10.9604 10.9961C11.5453 10.9961 12.1063 10.7638 12.5199 10.3503C12.52 10.3503 12.52 10.3503 12.52 10.3503L14.5219 8.34894C14.9356 7.93526 15.168 7.37418 15.168 6.78914C15.168 6.2041 14.9356 5.64303 14.5219 5.22934C14.1083 4.81566 13.5472 4.58325 12.9621 4.58325C12.3771 4.58325 11.816 4.81566 11.4023 5.22934L10.4016 6.23005C10.1576 6.47413 9.76183 6.47413 9.51775 6.23005C9.27367 5.98597 9.27367 5.59024 9.51775 5.34617L10.5185 4.34546Z"
    fill="currentColor"></path>
  <path fill-rule="evenodd" clip-rule="evenodd"
    d="M9.48154 15.6545C8.83344 16.3026 7.95442 16.6667 7.03786 16.6667C6.1213 16.6667 5.24228 16.3026 4.59418 15.6545C3.94607 15.0064 3.58197 14.1274 3.58197 13.2109C3.58197 12.2943 3.94607 11.4153 4.59418 10.7672L4.59425 10.7671L6.59631 8.76569L6.59633 8.76567C7.24442 8.11785 8.12326 7.75393 9.0396 7.75393C9.95594 7.75393 10.8348 8.11785 11.4829 8.76567C11.727 9.0097 11.7271 9.40542 11.483 9.64955C11.239 9.89368 10.8433 9.89376 10.5992 9.64974C10.1855 9.23623 9.62451 9.00393 9.0396 9.00393C8.4547 9.00393 7.89373 9.23622 7.48005 9.64972C7.48005 9.64972 7.48004 9.64973 7.48003 9.64974L5.47806 11.6511C5.06437 12.0647 4.83197 12.6258 4.83197 13.2109C4.83197 13.7959 5.06437 14.357 5.47806 14.7707C5.89174 15.1843 6.45282 15.4167 7.03786 15.4167C7.6229 15.4167 8.18397 15.1843 8.59766 14.7707L9.59837 13.77C9.84244 13.5259 10.2382 13.5259 10.4822 13.77C10.7263 14.014 10.7263 14.4098 10.4822 14.6538L9.48154 15.6545Z"
    fill="currentColor"></path>
</svg>
