<svg xmlns="http://www.w3.org/2000/svg" width="20" height="20" viewBox="0 0 20 20" fill="none">
  <path d="M5.625 5.625H13.75V6.875H5.625V5.625Z" fill="currentColor"></path>
  <path d="M13.75 8.125H5.625V9.375H13.75V8.125Z" fill="currentColor"></path>
  <path d="M5.625 10.625H9.375V11.875H5.625V10.625Z" fill="currentColor"></path>
  <path fill-rule="evenodd" clip-rule="evenodd"
    d="M5.625 3.125C4.24429 3.125 3.125 4.24429 3.125 5.625V14.375C3.125 15.7557 4.24429 16.875 5.625 16.875H11.4599C11.6256 16.875 11.7846 16.8092 11.9018 16.6919L16.6919 11.9018C16.8092 11.7846 16.875 11.6256 16.875 11.4599V5.625C16.875 4.24429 15.7557 3.125 14.375 3.125H5.625ZM14.375 4.375H5.625C4.93464 4.375 4.375 4.93464 4.375 5.625V14.375C4.375 15.0654 4.93464 15.625 5.625 15.625L10.625 15.625V12.5C10.625 11.4645 11.4645 10.625 12.5 10.625H15.625L15.625 5.625C15.625 4.93464 15.0654 4.375 14.375 4.375ZM14.951 11.875H12.5C12.1548 11.875 11.875 12.1548 11.875 12.5V14.951L14.951 11.875Z"
    fill="currentColor"></path>
</svg>
