<svg xmlns="http://www.w3.org/2000/svg" width="20" height="20" viewBox="0 0 20 20" fill="none">
  <path fill-rule="evenodd" clip-rule="evenodd"
    d="M15.5877 7.43054C16.6848 7.16622 17.5 6.17831 17.5 5C17.5 3.61929 16.3807 2.5 15 2.5C13.6193 2.5 12.5 3.61929 12.5 5C12.5 6.15131 13.2783 7.12085 14.3374 7.41124C14.3384 7.49076 14.3382 7.58624 14.3352 7.69368C14.3259 8.02703 14.2903 8.45911 14.1903 8.88128C14.0885 9.31056 13.9319 9.67933 13.7144 9.93101C13.5162 10.1605 13.2539 10.312 12.8469 10.312C11.8386 10.312 11.2524 9.9591 10.5286 9.52328L10.5201 9.51818C9.76733 9.06496 8.8927 8.54521 7.44685 8.54521C5.89893 8.54521 5.12631 9.67103 4.76827 10.6091C4.43194 11.4902 4.38155 12.3757 4.37664 12.5783C3.29754 12.8553 2.5 13.8345 2.5 15C2.5 16.3807 3.61929 17.5 5 17.5C6.38071 17.5 7.5 16.3807 7.5 15C7.5 13.8359 6.70436 12.8576 5.62722 12.5793C5.62826 12.5547 5.63028 12.5156 5.63416 12.4639C5.64107 12.3718 5.65341 12.2452 5.67494 12.0962C5.71844 11.7953 5.79727 11.4185 5.93609 11.0548C6.21967 10.3119 6.6699 9.79521 7.44685 9.79521C8.53427 9.79521 9.16083 10.1589 9.87536 10.5891L9.92129 10.6167C10.6501 11.0559 11.4901 11.562 12.8469 11.562C13.6388 11.562 14.2391 11.2357 14.6602 10.7483C15.0622 10.2831 15.2818 9.69601 15.4066 9.16946C15.533 8.63581 15.574 8.11205 15.5847 7.72853C15.5878 7.61793 15.5884 7.51765 15.5877 7.43054ZM15 6.25C15.6904 6.25 16.25 5.69036 16.25 5C16.25 4.30964 15.6904 3.75 15 3.75C14.3096 3.75 13.75 4.30964 13.75 5C13.75 5.69036 14.3096 6.25 15 6.25ZM5 16.25C5.69036 16.25 6.25 15.6904 6.25 15C6.25 14.3096 5.69036 13.75 5 13.75C4.30964 13.75 3.75 14.3096 3.75 15C3.75 15.6904 4.30964 16.25 5 16.25Z"
    fill="currentColor"></path>
</svg>
