<svg xmlns="http://www.w3.org/2000/svg" width="20" height="20" viewBox="0 0 24 24" fill="none">
  <path
    d="M12 11.5C12.8284 11.5 13.5 10.8284 13.5 10C13.5 9.17157 12.8284 8.5 12 8.5C11.1716 8.5 10.5 9.17157 10.5 10C10.5 10.8284 11.1716 11.5 12 11.5Z"
    fill="currentColor"></path>
  <path fill-rule="evenodd" clip-rule="evenodd"
    d="M19 10.2C19 15.6 12 21 12 21C12 21 5 15.6 5 10.2C5 6.22355 8.13401 3 12 3C15.866 3 19 6.22355 19 10.2ZM17.5 10.2C17.5 12.3227 16.0773 14.6629 14.3651 16.6442C13.5416 17.5971 12.7137 18.3959 12.0903 18.9569L12 19.0378L11.9097 18.9569C11.2863 18.3959 10.4584 17.5971 9.63492 16.6442C7.92271 14.6629 6.5 12.3227 6.5 10.2C6.5 7.01186 9.00199 4.5 12 4.5C14.998 4.5 17.5 7.01186 17.5 10.2Z"
    fill="currentColor"></path>
</svg>
