<svg xmlns="http://www.w3.org/2000/svg" width="20" height="20" viewBox="0 0 20 20" fill="none">
  <path fill-rule="evenodd" clip-rule="evenodd"
    d="M13.7731 4.68144L5.65436 5.30597C5.45305 5.32145 5.29181 5.47904 5.27172 5.67995L4.69156 11.4815C4.67436 11.6536 4.76518 11.8183 4.91982 11.8957L11.03 14.9508C11.2047 15.0381 11.4166 14.9924 11.5397 14.8408L15.5492 9.90607C15.6373 9.79767 15.6652 9.65235 15.6236 9.51904L14.2028 4.9726C14.1449 4.78731 13.9667 4.66656 13.7731 4.68144ZM5.55849 4.05965C4.75325 4.12159 4.10828 4.75195 4.02792 5.55557L3.44776 11.3571C3.37895 12.0453 3.74225 12.7044 4.3608 13.0137L10.471 16.0688C11.1697 16.4181 12.0173 16.2353 12.5099 15.6291L16.5194 10.6943C16.8717 10.2607 16.9833 9.67944 16.8167 9.1462L15.3959 4.59976C15.1643 3.85859 14.4515 3.37557 13.6773 3.43513L5.55849 4.05965Z"
    fill="currentColor"></path>
</svg>
