<svg xmlns="http://www.w3.org/2000/svg" width="20" height="20" viewBox="0 0 24 24" fill="none">
  <path
    d="M18.1832 16.3569C17.7654 15.9568 17.3588 15.5452 16.9639 15.1226C16.6321 14.7855 16.4323 14.5402 16.4323 14.5402L13.9349 13.3479C14.9348 12.214 15.4866 10.7544 15.4869 9.24279C15.4869 5.80123 12.6863 3 9.24344 3C5.80063 3 3 5.80123 3 9.24279C3 12.6843 5.80063 15.4856 9.24344 15.4856C10.8159 15.4856 12.2492 14.897 13.349 13.9347L14.5414 16.4318C14.5414 16.4318 14.7867 16.6316 15.1239 16.9633C15.469 17.2871 15.923 17.7249 16.3583 18.1825L17.5695 19.4239L18.1082 20L20 18.1084L19.4238 17.5698C19.0858 17.238 18.6345 16.7974 18.1832 16.3569ZM9.24344 13.7019C6.78442 13.7019 4.78384 11.7016 4.78384 9.24279C4.78384 6.78402 6.78442 4.78365 9.24344 4.78365C11.7025 4.78365 13.703 6.78402 13.703 9.24279C13.703 11.7016 11.7025 13.7019 9.24344 13.7019Z"
    fill="currentColor"></path>
</svg>
