<svg xmlns="http://www.w3.org/2000/svg" width="20" height="20" viewBox="0 0 20 20" fill="none">
  <path
    d="M14.1667 3.75C14.6269 3.75 15 4.1231 15 4.58333V6.25C15 6.59518 14.7202 6.875 14.375 6.875C14.0298 6.875 13.75 6.59518 13.75 6.25C13.75 5.55964 13.1904 5 12.5 5H10.625V15H11.25C11.9404 15 12.5 15.5596 12.5 16.25H7.5C7.5 15.5596 8.05964 15 8.75 15H9.375V5H7.5C6.80964 5 6.25 5.55964 6.25 6.25C6.25 6.59518 5.97018 6.875 5.625 6.875C5.27982 6.875 5 6.59518 5 6.25V4.58333C5 4.1231 5.3731 3.75 5.83333 3.75H14.1667Z"
    fill="currentColor"></path>
</svg>
