<svg xmlns="http://www.w3.org/2000/svg" width="20" height="20" viewBox="0 0 24 24" fill="none">
  <path
    d="M2.25 12.375C2.25 10.1152 3.78766 8.21444 5.87379 7.66206C6.94571 5.35201 9.28577 3.75 12 3.75C14.7142 3.75 17.0543 5.35201 18.1262 7.66206C20.2123 8.21444 21.75 10.1152 21.75 12.375C21.75 14.9412 19.7672 17.0443 17.25 17.2358V17.25H15.75V15.75H17.0062L17.1362 15.7401C18.8774 15.6077 20.25 14.1509 20.25 12.375C20.25 10.8126 19.187 9.49463 17.7423 9.11209L17.0618 8.93192L16.7656 8.29344C15.9303 6.49334 14.1088 5.25 12 5.25C9.89122 5.25 8.06973 6.49333 7.23444 8.29344L6.93816 8.93192L6.25774 9.11209C4.81304 9.49463 3.75 10.8126 3.75 12.375C3.75 14.1509 5.12265 15.6077 6.86378 15.7401L6.99376 15.75H8.25V17.25H6.75V17.2358C4.23283 17.0443 2.25 14.9412 2.25 12.375Z"
    fill="currentColor"></path>
  <path
    d="M12.75 13.5V19.875C12.75 20.0821 12.5821 20.25 12.375 20.25H11.625C11.4179 20.25 11.25 20.0821 11.25 19.875V13.5H9.46814C9.27948 13.5 9.17459 13.2818 9.29245 13.1344L11.8243 9.96962C11.9144 9.85703 12.0856 9.85703 12.1757 9.96962L14.7076 13.1344C14.8254 13.2818 14.7205 13.5 14.5319 13.5H12.75Z"
    fill="currentColor"></path>
</svg>
